<?xml version="1.0" encoding="utf-8"?>
<!-- Generator: Adobe Illustrator 17.0.1, SVG Export Plug-In . SVG Version: 6.00 Build 0)  -->
<!DOCTYPE svg PUBLIC "-//W3C//DTD SVG 1.1//EN" "http://www.w3.org/Graphics/SVG/1.1/DTD/svg11.dtd">
<svg version="1.1" id="Layer_1" xmlns="http://www.w3.org/2000/svg" xmlns:xlink="http://www.w3.org/1999/xlink" x="0px" y="0px"
	 width="360px" height="360px" viewBox="0 0 360 360" enable-background="new 0 0 360 360" xml:space="preserve">
<g>
	<path fill="#F3F3F3" d="M154.178,154.894c-9.891,9.894-9.891,25.926,0,35.815c9.889,9.892,25.923,9.892,35.814,0
		c9.891-9.889,9.891-25.921,0-35.815C180.101,145.006,164.066,145.009,154.178,154.894z"/>
	<path fill="#F3F3F3" d="M180,45.983c-74.016,0-134.018,60.003-134.018,134.017c0,74.017,60.002,134.018,134.018,134.018
		S314.018,254.017,314.018,180C314.018,105.985,254.016,45.983,180,45.983z M219.069,219.789c-1.927,1.929-5.052,1.929-6.978,0
		l-19.682-19.683c-13.332,9.949-32.288,8.874-44.395-3.233c-13.296-13.293-13.296-34.847,0-48.139
		c13.293-13.293,34.844-13.293,48.137,0c12.112,12.107,13.184,31.065,3.233,44.393l19.685,19.685
		C220.998,214.738,220.998,217.861,219.069,219.789z"/>
</g>
</svg>
